<?xml version="1.0" standalone="no"?>
<!DOCTYPE svg PUBLIC "-//W3C//DTD SVG 20010904//EN"
 "http://www.w3.org/TR/2001/REC-SVG-20010904/DTD/svg10.dtd">
<svg version="1.0" xmlns="http://www.w3.org/2000/svg"
 width="512.000000pt" height="512.000000pt" viewBox="0 0 512.000000 512.000000"
 preserveAspectRatio="xMidYMid meet">
<metadata>
Created by potrace 1.11, written by Peter Selinger 2001-2013
</metadata>
<g transform="translate(0.000000,512.000000) scale(0.100000,-0.100000)"
fill="#000000" stroke="none">
<path d="M0 2560 l0 -2560 2560 0 2560 0 0 2560 0 2560 -2560 0 -2560 0 0
-2560z m2347 2165 c-6 -14 -111 -187 -422 -695 -89 -146 -205 -335 -257 -420
-157 -258 -427 -699 -493 -805 -99 -159 -96 -132 -25 -249 34 -55 148 -244
252 -418 127 -211 196 -318 207 -318 9 0 25 17 36 37 11 21 41 72 67 114 25
42 55 91 65 110 46 84 1560 2609 1572 2622 8 8 760 11 768 3 3 -3 -56 -105
-130 -228 -75 -123 -139 -230 -142 -239 -4 -11 94 -183 283 -495 318 -526 621
-1027 642 -1060 14 -22 7 -35 -508 -884 -69 -113 -159 -261 -200 -330 -41 -69
-105 -174 -142 -235 -37 -60 -127 -209 -200 -330 -73 -121 -170 -281 -216
-356 l-84 -136 -368 5 c-202 2 -368 6 -370 7 -2 1 11 23 28 48 16 25 30 48 30
51 0 3 16 30 35 60 19 30 35 57 35 60 0 4 31 57 68 118 37 62 107 178 154 258
47 80 153 258 236 395 539 901 734 1230 738 1240 3 7 -90 169 -207 361 -116
192 -241 397 -276 457 -35 59 -67 107 -72 107 -4 0 -59 -84 -121 -187 -63
-104 -173 -285 -245 -403 -72 -118 -198 -325 -280 -460 -326 -537 -682 -1117
-760 -1240 -23 -36 -59 -94 -80 -130 -21 -36 -41 -67 -44 -70 -14 -12 -51 -70
-51 -80 0 -5 -4 -10 -8 -10 -5 0 -14 -10 -19 -22 -10 -21 -11 -22 -18 -5 -5
11 -30 41 -57 68 -40 40 -48 54 -42 72 4 12 11 24 15 25 5 2 9 8 9 13 0 10 53
102 295 509 121 204 598 997 1195 1985 249 413 455 758 458 768 4 16 -7 17
-134 17 l-139 0 -29 -47 c-16 -27 -86 -142 -156 -258 -70 -115 -216 -356 -325
-535 -109 -179 -293 -482 -410 -675 -222 -365 -320 -526 -525 -860 -68 -110
-152 -247 -187 -305 -35 -58 -93 -150 -128 -205 -35 -55 -77 -122 -94 -150
-17 -27 -39 -61 -50 -75 l-19 -24 -28 32 c-16 18 -34 32 -41 32 -6 0 -15 10
-19 22 -4 12 -20 34 -37 48 -16 14 -37 33 -46 42 -8 10 -21 18 -28 18 -6 0
-15 9 -18 21 -9 26 -113 129 -131 129 -8 0 -18 8 -21 17 -14 35 -88 113 -109
113 -7 0 -16 11 -20 25 -3 14 -10 25 -14 25 -4 0 -26 18 -48 40 -22 22 -44 40
-50 40 -6 0 -14 9 -17 21 -10 29 -103 118 -138 132 -9 3 -17 13 -17 20 0 8
-18 33 -40 56 -22 22 -40 45 -40 50 0 5 -22 44 -50 85 -27 42 -50 80 -50 86 0
5 -4 10 -10 10 -5 0 -10 5 -10 10 0 6 -9 23 -19 38 -46 65 -142 226 -146 246
-4 14 12 51 48 111 30 50 107 180 172 290 66 110 315 524 554 920 239 396 439
730 445 742 l11 23 384 0 c332 0 382 -2 378 -15z"/>
</g>
</svg>
